<mxfile host="Electron" agent="Mozilla/5.0 (Windows NT 10.0; Win64; x64) AppleWebKit/537.36 (KHTML, like Gecko) draw.io/24.7.17 Chrome/128.0.6613.36 Electron/32.0.1 Safari/537.36" version="24.7.17">
  <diagram name="Use Case Diagram" id="w-sozc4mNtkJRfIdkP7H">
    <mxGraphModel dx="1674" dy="854" grid="1" gridSize="10" guides="1" tooltips="1" connect="1" arrows="1" fold="1" page="1" pageScale="1" pageWidth="827" pageHeight="1169" math="0" shadow="0">
      <root>
        <mxCell id="0" />
        <mxCell id="1" parent="0" />
        <mxCell id="icewvDfvFLtUn4ooX2DL-121" value="" style="endArrow=classic;html=1;rounded=0;strokeColor=#0000FF;" edge="1" parent="1" source="icewvDfvFLtUn4ooX2DL-105" target="icewvDfvFLtUn4ooX2DL-120">
          <mxGeometry width="50" height="50" relative="1" as="geometry">
            <mxPoint x="20" y="250" as="sourcePoint" />
            <mxPoint x="70" y="200" as="targetPoint" />
          </mxGeometry>
        </mxCell>
        <mxCell id="icewvDfvFLtUn4ooX2DL-129" value="" style="endArrow=classic;html=1;rounded=0;strokeColor=#009900;" edge="1" parent="1" source="icewvDfvFLtUn4ooX2DL-124" target="icewvDfvFLtUn4ooX2DL-108">
          <mxGeometry width="50" height="50" relative="1" as="geometry">
            <mxPoint x="670" y="200" as="sourcePoint" />
            <mxPoint x="720" y="150" as="targetPoint" />
          </mxGeometry>
        </mxCell>
        <mxCell id="icewvDfvFLtUn4ooX2DL-123" value="" style="endArrow=classic;html=1;rounded=0;strokeColor=#0000FF;" edge="1" parent="1" source="icewvDfvFLtUn4ooX2DL-105" target="icewvDfvFLtUn4ooX2DL-122">
          <mxGeometry width="50" height="50" relative="1" as="geometry">
            <mxPoint x="30" y="270" as="sourcePoint" />
            <mxPoint x="80" y="220" as="targetPoint" />
          </mxGeometry>
        </mxCell>
        <mxCell id="icewvDfvFLtUn4ooX2DL-119" value="" style="endArrow=classic;html=1;rounded=0;strokeColor=#0000FF;" edge="1" parent="1" source="icewvDfvFLtUn4ooX2DL-105" target="icewvDfvFLtUn4ooX2DL-118">
          <mxGeometry width="50" height="50" relative="1" as="geometry">
            <mxPoint x="70" y="470" as="sourcePoint" />
            <mxPoint x="120" y="420" as="targetPoint" />
          </mxGeometry>
        </mxCell>
        <mxCell id="icewvDfvFLtUn4ooX2DL-117" value="" style="endArrow=classic;html=1;rounded=0;strokeColor=#0000FF;" edge="1" parent="1" source="icewvDfvFLtUn4ooX2DL-105" target="icewvDfvFLtUn4ooX2DL-109">
          <mxGeometry width="50" height="50" relative="1" as="geometry">
            <mxPoint x="310" y="310" as="sourcePoint" />
            <mxPoint x="360" y="260" as="targetPoint" />
          </mxGeometry>
        </mxCell>
        <mxCell id="icewvDfvFLtUn4ooX2DL-116" value="" style="endArrow=classic;html=1;rounded=0;strokeColor=#0000FF;" edge="1" parent="1" source="icewvDfvFLtUn4ooX2DL-105" target="icewvDfvFLtUn4ooX2DL-112">
          <mxGeometry width="50" height="50" relative="1" as="geometry">
            <mxPoint x="340" y="450" as="sourcePoint" />
            <mxPoint x="390" y="400" as="targetPoint" />
          </mxGeometry>
        </mxCell>
        <mxCell id="icewvDfvFLtUn4ooX2DL-113" value="" style="endArrow=classic;html=1;rounded=0;strokeColor=#0000FF;" edge="1" parent="1" source="icewvDfvFLtUn4ooX2DL-105" target="icewvDfvFLtUn4ooX2DL-110">
          <mxGeometry width="50" height="50" relative="1" as="geometry">
            <mxPoint x="10" y="220" as="sourcePoint" />
            <mxPoint x="60" y="170" as="targetPoint" />
          </mxGeometry>
        </mxCell>
        <mxCell id="icewvDfvFLtUn4ooX2DL-114" value="" style="endArrow=classic;html=1;rounded=0;entryX=0.243;entryY=0.093;entryDx=0;entryDy=0;entryPerimeter=0;strokeColor=#0000FF;" edge="1" parent="1" source="icewvDfvFLtUn4ooX2DL-105" target="icewvDfvFLtUn4ooX2DL-108">
          <mxGeometry width="50" height="50" relative="1" as="geometry">
            <mxPoint x="40" y="200" as="sourcePoint" />
            <mxPoint x="90" y="150" as="targetPoint" />
          </mxGeometry>
        </mxCell>
        <mxCell id="icewvDfvFLtUn4ooX2DL-115" value="" style="endArrow=classic;html=1;rounded=0;entryX=0.4;entryY=0.048;entryDx=0;entryDy=0;entryPerimeter=0;strokeColor=#0000FF;" edge="1" parent="1" source="icewvDfvFLtUn4ooX2DL-105" target="icewvDfvFLtUn4ooX2DL-111">
          <mxGeometry width="50" height="50" relative="1" as="geometry">
            <mxPoint x="50" y="150" as="sourcePoint" />
            <mxPoint x="70" y="140" as="targetPoint" />
          </mxGeometry>
        </mxCell>
        <mxCell id="icewvDfvFLtUn4ooX2DL-109" value="Управлять статусом публикации разделов (публиковать/скрывать)." style="ellipse;whiteSpace=wrap;html=1;" vertex="1" parent="1">
          <mxGeometry x="10" y="670" width="160" height="90" as="geometry" />
        </mxCell>
        <mxCell id="icewvDfvFLtUn4ooX2DL-110" value="Управлять пользователями (создавать, удалять, редактировать профили пользователей, назначать роли и доступы)." style="ellipse;whiteSpace=wrap;html=1;" vertex="1" parent="1">
          <mxGeometry x="570" y="210" width="210" height="120" as="geometry" />
        </mxCell>
        <mxCell id="icewvDfvFLtUn4ooX2DL-111" value="Управлять информационными объектами (создавать, редактировать, удалять новости, статьи, объявления)." style="ellipse;whiteSpace=wrap;html=1;" vertex="1" parent="1">
          <mxGeometry x="320" y="310" width="210" height="90" as="geometry" />
        </mxCell>
        <mxCell id="icewvDfvFLtUn4ooX2DL-112" value="Просматривать и управлять статистикой использования платформы (просмотры, посещаемость, активность пользователей)." style="ellipse;whiteSpace=wrap;html=1;" vertex="1" parent="1">
          <mxGeometry x="160" y="400" width="220" height="110" as="geometry" />
        </mxCell>
        <mxCell id="icewvDfvFLtUn4ooX2DL-118" value="Назначать и изменять права доступа к разделам и объектам платформы для других ролей." style="ellipse;whiteSpace=wrap;html=1;" vertex="1" parent="1">
          <mxGeometry x="160" y="260" width="160" height="90" as="geometry" />
        </mxCell>
        <mxCell id="icewvDfvFLtUn4ooX2DL-120" value="Просматривать и управлять отзывами пользователей (удалять некорректные отзывы, модерировать контент)." style="ellipse;whiteSpace=wrap;html=1;" vertex="1" parent="1">
          <mxGeometry x="564" y="370" width="200" height="110" as="geometry" />
        </mxCell>
        <mxCell id="icewvDfvFLtUn4ooX2DL-122" value="Создавать и редактировать справочники, компетенции, профессии и кадровые ресурсы на платформе." style="ellipse;whiteSpace=wrap;html=1;" vertex="1" parent="1">
          <mxGeometry x="490" y="110" width="184" height="90" as="geometry" />
        </mxCell>
        <mxCell id="icewvDfvFLtUn4ooX2DL-105" value="Администратор" style="shape=umlActor;verticalLabelPosition=bottom;verticalAlign=top;html=1;outlineConnect=0;strokeColor=#0000FF;" vertex="1" parent="1">
          <mxGeometry x="50" y="140" width="30" height="60" as="geometry" />
        </mxCell>
        <mxCell id="icewvDfvFLtUn4ooX2DL-124" value="Модератор" style="shape=umlActor;verticalLabelPosition=bottom;verticalAlign=top;html=1;outlineConnect=0;strokeColor=#009900;" vertex="1" parent="1">
          <mxGeometry x="399" y="700" width="30" height="60" as="geometry" />
        </mxCell>
        <mxCell id="icewvDfvFLtUn4ooX2DL-130" value="" style="endArrow=classic;html=1;rounded=0;strokeColor=#009900;" edge="1" parent="1" source="icewvDfvFLtUn4ooX2DL-124" target="icewvDfvFLtUn4ooX2DL-109">
          <mxGeometry width="50" height="50" relative="1" as="geometry">
            <mxPoint x="670" y="200" as="sourcePoint" />
            <mxPoint x="720" y="150" as="targetPoint" />
          </mxGeometry>
        </mxCell>
        <mxCell id="icewvDfvFLtUn4ooX2DL-131" value="" style="endArrow=classic;html=1;rounded=0;strokeColor=#009900;" edge="1" parent="1" source="icewvDfvFLtUn4ooX2DL-124" target="icewvDfvFLtUn4ooX2DL-112">
          <mxGeometry width="50" height="50" relative="1" as="geometry">
            <mxPoint x="640" y="230" as="sourcePoint" />
            <mxPoint x="690" y="180" as="targetPoint" />
          </mxGeometry>
        </mxCell>
        <mxCell id="icewvDfvFLtUn4ooX2DL-108" value="Добавить, удалить и редактировать разделы и подразделы платформы." style="ellipse;whiteSpace=wrap;html=1;" vertex="1" parent="1">
          <mxGeometry x="100" y="530" width="170" height="100" as="geometry" />
        </mxCell>
        <mxCell id="icewvDfvFLtUn4ooX2DL-134" value="Редактировать и публиковать/скрывать новости и разделы платформы." style="ellipse;whiteSpace=wrap;html=1;" vertex="1" parent="1">
          <mxGeometry x="414" y="480" width="170" height="80" as="geometry" />
        </mxCell>
        <mxCell id="icewvDfvFLtUn4ooX2DL-135" value="" style="endArrow=classic;html=1;rounded=0;strokeColor=#009900;" edge="1" parent="1" source="icewvDfvFLtUn4ooX2DL-124" target="icewvDfvFLtUn4ooX2DL-134">
          <mxGeometry width="50" height="50" relative="1" as="geometry">
            <mxPoint x="880" y="210" as="sourcePoint" />
            <mxPoint x="930" y="160" as="targetPoint" />
          </mxGeometry>
        </mxCell>
        <mxCell id="icewvDfvFLtUn4ooX2DL-137" value="&amp;nbsp;Модерировать комментарии и отзывы пользователей, оставленные на платформе." style="ellipse;whiteSpace=wrap;html=1;" vertex="1" parent="1">
          <mxGeometry x="584" y="560" width="160" height="120" as="geometry" />
        </mxCell>
        <mxCell id="icewvDfvFLtUn4ooX2DL-138" value="" style="endArrow=classic;html=1;rounded=0;strokeColor=#009900;" edge="1" parent="1" source="icewvDfvFLtUn4ooX2DL-124" target="icewvDfvFLtUn4ooX2DL-137">
          <mxGeometry width="50" height="50" relative="1" as="geometry">
            <mxPoint x="1080" y="310" as="sourcePoint" />
            <mxPoint x="1130" y="260" as="targetPoint" />
          </mxGeometry>
        </mxCell>
      </root>
    </mxGraphModel>
  </diagram>
</mxfile>
